<?xml version="1.0" encoding="UTF-8"?>
<svg version="1.1" xmlns="http://www.w3.org/2000/svg" width="446" height="598">
<path d="M0 0 C147.18 0 294.36 0 446 0 C446 197.34 446 394.68 446 598 C298.82 598 151.64 598 0 598 C0 400.66 0 203.32 0 0 Z " fill="#02050B" transform="translate(0,0)"/>
<path d="M0 0 C6.6 0 13.2 0 20 0 C20 1.32 20 2.64 20 4 C27.92 4 35.84 4 44 4 C44 4.99 44 5.98 44 7 C48.62 7 53.24 7 58 7 C58 7.99 58 8.98 58 10 C65.92 10.33 73.84 10.66 82 11 C82 11.99 82 12.98 82 14 C87.61 14 93.22 14 99 14 C99 15.32 99 16.64 99 18 C105.93 18 112.86 18 120 18 C120 18.99 120 19.98 120 21 C126.6 21 133.2 21 140 21 C140 21.99 140 22.98 140 24 C141.32 24 142.64 24 144 24 C144 27.63 144 31.26 144 35 C144.99 35 145.98 35 147 35 C147 85.82 147 136.64 147 189 C146.01 189 145.02 189 144 189 C144 192.63 144 196.26 144 200 C141.69 200 139.38 200 137 200 C137 200.99 137 201.98 137 203 C129.08 203 121.16 203 113 203 C113 202.01 113 201.02 113 200 C112.02417969 200.01160156 111.04835938 200.02320313 110.04296875 200.03515625 C108.13451172 200.04869141 108.13451172 200.04869141 106.1875 200.0625 C104.29064453 200.07990234 104.29064453 200.07990234 102.35546875 200.09765625 C99 200 99 200 96 199 C96 198.01 96 197.02 96 196 C88.08 196 80.16 196 72 196 C72 195.01 72 194.02 72 193 C62.76 193 53.52 193 44 193 C44 192.01 44 191.02 44 190 C34.1 189.505 34.1 189.505 24 189 C24 188.01 24 187.02 24 186 C21.69 186 19.38 186 17 186 C17 185.01 17 184.02 17 183 C15.68 183 14.36 183 13 183 C13 181.68 13 180.36 13 179 C12.01 179 11.02 179 10 179 C10 178.01 10 177.02 10 176 C8.68 176 7.36 176 6 176 C6 174.68 6 173.36 6 172 C5.01 172 4.02 172 3 172 C3 168.7 3 165.4 3 162 C2.01 162 1.02 162 0 162 C0 108.54 0 55.08 0 0 Z " fill="#02050B" transform="translate(159,128)"/>
<path d="M0 0 C6.93 0 13.86 0 21 0 C21 0.99 21 1.98 21 3 C23.31 3 25.62 3 28 3 C28 4.32 28 5.64 28 7 C28.99 7 29.98 7 31 7 C31 7.99 31 8.98 31 10 C32.32 10 33.64 10 35 10 C35 13.63 35 17.26 35 21 C35.99 21 36.98 21 38 21 C38 31.23 38 41.46 38 52 C37.01 52 36.02 52 35 52 C35 59.92 35 67.84 35 76 C35.99 76 36.98 76 38 76 C38 76.99 38 77.98 38 79 C40.31 79 42.62 79 45 79 C45 79.99 45 80.98 45 82 C45.99 82 46.98 82 48 82 C48 83.32 48 84.64 48 86 C49.32 86 50.64 86 52 86 C52 86.99 52 87.98 52 89 C53.32 89.33 54.64 89.66 56 90 C56 91.98 56 93.96 56 96 C56.99 96 57.98 96 59 96 C59 148.14 59 200.28 59 254 C58.01 254 57.02 254 56 254 C55.67 257.63 55.34 261.26 55 265 C54.01 265 53.02 265 52 265 C52 265.99 52 266.98 52 268 C50.68 268 49.36 268 48 268 C48 268.99 48 269.98 48 271 C47.01 271 46.02 271 45 271 C45 272.32 45 273.64 45 275 C29.16 275 13.32 275 -3 275 C-3 274.01 -3 273.02 -3 272 C-10.92 272 -18.84 272 -27 272 C-27 271.01 -27 270.02 -27 269 C-34.92 268.67 -42.84 268.34 -51 268 C-51 267.01 -51 266.02 -51 265 C-51.97582031 265.01160156 -52.95164063 265.02320313 -53.95703125 265.03515625 C-55.22933594 265.04417969 -56.50164062 265.05320312 -57.8125 265.0625 C-59.70935547 265.07990234 -59.70935547 265.07990234 -61.64453125 265.09765625 C-65 265 -65 265 -68 264 C-68.33 263.34 -68.66 262.68 -69 262 C-72.04581269 261.53045739 -72.04581269 261.53045739 -75.5625 261.375 C-76.76003906 261.30023438 -77.95757812 261.22546875 -79.19140625 261.1484375 C-80.11824219 261.09945313 -81.04507813 261.05046875 -82 261 C-82 260.01 -82 259.02 -82 258 C-84.31 258 -86.62 258 -89 258 C-89 257.01 -89 256.02 -89 255 C-90.32 255 -91.64 255 -93 255 C-93 253.68 -93 252.36 -93 251 C-93.99 251 -94.98 251 -96 251 C-96 249.68 -96 248.36 -96 247 C-96.99 247 -97.98 247 -99 247 C-99 246.01 -99 245.02 -99 244 C-100.32 244 -101.64 244 -103 244 C-103 241.69 -103 239.38 -103 237 C-103.99 237 -104.98 237 -106 237 C-107.1577506 233.52674819 -107.06866652 230.63932552 -107 227 C-107.99 227 -108.98 227 -110 227 C-110 168.92 -110 110.84 -110 51 C-109.01 51 -108.02 51 -107 51 C-107 50.01 -107 49.02 -107 48 C-105.68 48 -104.36 48 -103 48 C-103 47.01 -103 46.02 -103 45 C-100.69 45 -98.38 45 -96 45 C-96 43.68 -96 42.36 -96 41 C-92.7 41 -89.4 41 -86 41 C-86 40.01 -86 39.02 -86 38 C-83.69 38 -81.38 38 -79 38 C-79 36.68 -79 35.36 -79 34 C-76.69 34 -74.38 34 -72 34 C-72 33.01 -72 32.02 -72 31 C-68.7 31 -65.4 31 -62 31 C-62 30.01 -62 29.02 -62 28 C-59.69 28 -57.38 28 -55 28 C-55 26.68 -55 25.36 -55 24 C-51.7 24 -48.4 24 -45 24 C-45 23.01 -45 22.02 -45 21 C-42.69 21 -40.38 21 -38 21 C-38 19.68 -38 18.36 -38 17 C-35.69 17 -33.38 17 -31 17 C-31 16.01 -31 15.02 -31 14 C-28.69 14 -26.38 14 -24 14 C-24 12.68 -24 11.36 -24 10 C-21.69 10 -19.38 10 -17 10 C-17 9.01 -17 8.02 -17 7 C-13.7 7 -10.4 7 -7 7 C-7 5.68 -7 4.36 -7 3 C-4.69 3 -2.38 3 0 3 C0 2.01 0 1.02 0 0 Z M-99 65 C-99 118.46 -99 171.92 -99 227 C-98.01 227 -97.02 227 -96 227 C-96 230.3 -96 233.6 -96 237 C-95.01 237 -94.02 237 -93 237 C-93 238.32 -93 239.64 -93 241 C-91.68 241 -90.36 241 -89 241 C-89 241.99 -89 242.98 -89 244 C-88.01 244 -87.02 244 -86 244 C-86 245.32 -86 246.64 -86 248 C-84.68 248 -83.36 248 -82 248 C-82 248.99 -82 249.98 -82 251 C-79.69 251 -77.38 251 -75 251 C-75 251.99 -75 252.98 -75 254 C-65.1 254.495 -65.1 254.495 -55 255 C-55 255.99 -55 256.98 -55 258 C-45.76 258 -36.52 258 -27 258 C-27 258.99 -27 259.98 -27 261 C-19.08 261 -11.16 261 -3 261 C-3 261.99 -3 262.98 -3 264 C0.56045177 265.18681726 3.43808337 265.09689832 7.1875 265.0625 C9.09595703 265.04896484 9.09595703 265.04896484 11.04296875 265.03515625 C12.01878906 265.02355469 12.99460937 265.01195312 14 265 C14 265.99 14 266.98 14 268 C21.92 268 29.84 268 38 268 C38 267.01 38 266.02 38 265 C40.31 265 42.62 265 45 265 C45 261.37 45 257.74 45 254 C45.99 254 46.98 254 48 254 C48 203.18 48 152.36 48 100 C47.01 100 46.02 100 45 100 C45 96.37 45 92.74 45 89 C43.68 89 42.36 89 41 89 C41 88.01 41 87.02 41 86 C34.4 86 27.8 86 21 86 C21 85.01 21 84.02 21 83 C14.07 83 7.14 83 0 83 C0 81.68 0 80.36 0 79 C-5.61 79 -11.22 79 -17 79 C-17 78.01 -17 77.02 -17 76 C-24.92 75.67 -32.84 75.34 -41 75 C-41 74.01 -41 73.02 -41 72 C-45.62 72 -50.24 72 -55 72 C-55 71.01 -55 70.02 -55 69 C-62.92 69 -70.84 69 -79 69 C-79 67.68 -79 66.36 -79 65 C-85.6 65 -92.2 65 -99 65 Z " fill="#F8F8F8" transform="translate(258,63)"/>
<path d="M0 0 C9.24 0 18.48 0 28 0 C28 4.62 28 9.24 28 14 C28.99 14 29.98 14 31 14 C31 17.63 31 21.26 31 25 C31.99 25 32.98 25 34 25 C35.1577506 28.47325181 35.06866652 31.36067448 35 35 C35.99 35 36.98 35 38 35 C38 38.3 38 41.6 38 45 C39.32 45 40.64 45 42 45 C42 47.31 42 49.62 42 52 C42.99 52 43.98 52 45 52 C45 48.7 45 45.4 45 42 C46.32 42 47.64 42 49 42 C49 39.69 49 37.38 49 35 C49.99 35 50.98 35 52 35 C52 30.38 52 25.76 52 21 C52.99 21 53.98 21 55 21 C54.98839844 20.31292969 54.97679687 19.62585938 54.96484375 18.91796875 C54.95582031 18.01691406 54.94679687 17.11585938 54.9375 16.1875 C54.92589844 15.29417969 54.91429687 14.40085937 54.90234375 13.48046875 C55 11 55 11 56 8 C56.66 7.67 57.32 7.34 58 7 C58.33 5.02 58.66 3.04 59 1 C66.92 1 74.84 1 83 1 C83 30.37 83 59.74 83 90 C77.39 90 71.78 90 66 90 C66 71.85 66 53.7 66 35 C64.68 35 63.36 35 62 35 C62 38.3 62 41.6 62 45 C61.01 45 60.02 45 59 45 C59.020625 46.0725 59.04125 47.145 59.0625 48.25 C59.0142016 51.14790424 58.86844115 53.28612141 58 56 C57.34 56 56.68 56 56 56 C55.505 60.95 55.505 60.95 55 66 C54.01 66 53.02 66 52 66 C52 70.62 52 75.24 52 80 C51.01 80 50.02 80 49 80 C49 83.3 49 86.6 49 90 C45.37 90 41.74 90 38 90 C38 87.69 38 85.38 38 83 C37.01 83 36.02 83 35 83 C35 78.38 35 73.76 35 69 C34.01 69 33.02 69 32 69 C32 65.7 32 62.4 32 59 C30.68 59 29.36 59 28 59 C28 56.69 28 54.38 28 52 C26.68 52 25.36 52 24 52 C24 48.7 24 45.4 24 42 C23.01 42 22.02 42 21 42 C21 57.84 21 73.68 21 90 C14.07 90 7.14 90 0 90 C0 60.3 0 30.6 0 0 Z " fill="#E7E7E8" transform="translate(86,451)"/>
<path d="M0 0 C6.93 0 13.86 0 21 0 C21 1.32 21 2.64 21 4 C21.99 4 22.98 4 24 4 C24.495 8.95 24.495 8.95 25 14 C25.99 14 26.98 14 28 14 C28.02532087 20.78099776 28.04285457 27.56198337 28.05493164 34.34301758 C28.05996551 36.6506394 28.06679305 38.95825803 28.07543945 41.26586914 C28.08754635 44.57959786 28.09323773 47.89328448 28.09765625 51.20703125 C28.10281754 52.2414888 28.10797882 53.27594635 28.11329651 54.3417511 C28.11337204 55.3025206 28.11344757 56.2632901 28.11352539 57.25317383 C28.115746 58.09922684 28.11796661 58.94527985 28.12025452 59.81697083 C28 62 28 62 27 65 C23.7 65 20.4 65 17 65 C17 64.34 17 63.68 17 63 C11.39 62.67 5.78 62.34 0 62 C0 61.01 0 60.02 0 59 C-1.19238281 59.01160156 -2.38476562 59.02320313 -3.61328125 59.03515625 C-5.17968594 59.04453592 -6.74609231 59.05363593 -8.3125 59.0625 C-9.09818359 59.07087891 -9.88386719 59.07925781 -10.69335938 59.08789062 C-11.45068359 59.09111328 -12.20800781 59.09433594 -12.98828125 59.09765625 C-14.03302612 59.10551147 -14.03302612 59.10551147 -15.09887695 59.11352539 C-17 59 -17 59 -20 58 C-20 57.34 -20 56.68 -20 56 C-26.93 55.67 -33.86 55.34 -41 55 C-41 54.01 -41 53.02 -41 52 C-47.93 52 -54.86 52 -62 52 C-62 51.01 -62 50.02 -62 49 C-62.89203125 49.01160156 -63.7840625 49.02320313 -64.703125 49.03515625 C-66.45882812 49.04869141 -66.45882812 49.04869141 -68.25 49.0625 C-69.99023438 49.07990234 -69.99023438 49.07990234 -71.765625 49.09765625 C-74.40977128 49.01782092 -76.49826091 48.78643778 -79 48 C-79 47.01 -79 46.02 -79 45 C-82.3 45 -85.6 45 -89 45 C-89 44.01 -89 43.02 -89 42 C-86.69 42 -84.38 42 -82 42 C-82 40.68 -82 39.36 -82 38 C-79.69 38 -77.38 38 -75 38 C-75 37.01 -75 36.02 -75 35 C-71.7 35 -68.4 35 -65 35 C-65 33.68 -65 32.36 -65 31 C-62.69 31 -60.38 31 -58 31 C-58 30.01 -58 29.02 -58 28 C-56.02 27.67 -54.04 27.34 -52 27 C-51.505 25.515 -51.505 25.515 -51 24 C-49.02 24 -47.04 24 -45 24 C-45 23.01 -45 22.02 -45 21 C-41.37 21 -37.74 21 -34 21 C-34 20.01 -34 19.02 -34 18 C-31.69 18 -29.38 18 -27 18 C-27 16.68 -27 15.36 -27 14 C-24.69 14 -22.38 14 -20 14 C-20 13.01 -20 12.02 -20 11 C-16.7 11 -13.4 11 -10 11 C-10 9.68 -10 8.36 -10 7 C-7.69 7 -5.38 7 -3 7 C-3 6.01 -3 5.02 -3 4 C-2.01 4 -1.02 4 0 4 C0 2.68 0 1.36 0 0 Z " fill="#03060C" transform="translate(258,73)"/>
<path d="M0 0 C6.93 0 13.86 0 21 0 C21 1.32 21 2.64 21 4 C21.99 4 22.98 4 24 4 C24 6.31 24 8.62 24 11 C24.99 11 25.98 11 27 11 C28.1577506 14.47325181 28.06866652 17.36067448 28 21 C28.99 21 29.98 21 31 21 C31 21.99 31 22.98 31 24 C32.32 24 33.64 24 35 24 C35 26.31 35 28.62 35 31 C35.99 31 36.98 31 38 31 C38 33.31 38 35.62 38 38 C39.32 38 40.64 38 42 38 C42 39.32 42 40.64 42 42 C42.99 42 43.98 42 45 42 C45 44.31 45 46.62 45 49 C45.99 49 46.98 49 48 49 C48 33.16 48 17.32 48 1 C53.61 1 59.22 1 65 1 C65 30.37 65 59.74 65 90 C59.39 90 53.78 90 48 90 C48 87.69 48 85.38 48 83 C47.01 83 46.02 83 45 83 C45 80.69 45 78.38 45 76 C43.68 76 42.36 76 41 76 C41 73.69 41 71.38 41 69 C40.01 69 39.02 69 38 69 C38 66.69 38 64.38 38 62 C37.01 62 36.02 62 35 62 C35 61.01 35 60.02 35 59 C33.68 59 32.36 59 31 59 C31 56.69 31 54.38 31 52 C30.01 52 29.02 52 28 52 C28 49.69 28 47.38 28 45 C26.68 45 25.36 45 24 45 C24 42.69 24 40.38 24 38 C23.01 38 22.02 38 21 38 C21 37.01 21 36.02 21 35 C19.68 35 18.36 35 17 35 C17 53.15 17 71.3 17 90 C11.39 90 5.78 90 0 90 C0 60.3 0 30.6 0 0 Z " fill="#E8E8E9" transform="translate(248,451)"/>
<path d="M0 0 C6.93 0 13.86 0 21 0 C21 22.77 21 45.54 21 69 C21.99 69 22.98 69 24 69 C24 70.32 24 71.64 24 73 C25.32 73 26.64 73 28 73 C28 73.99 28 74.98 28 76 C32.62 76 37.24 76 42 76 C42 75.01 42 74.02 42 73 C42.99 73 43.98 73 45 73 C45 71.68 45 70.36 45 69 C46.32 69 47.64 69 49 69 C49 46.56 49 24.12 49 1 C54.61 1 60.22 1 66 1 C66 25.75 66 50.5 66 76 C64.68 76 63.36 76 62 76 C62 77.32 62 78.64 62 80 C61.01 80 60.02 80 59 80 C59 80.99 59 81.98 59 83 C57.68 83 56.36 83 55 83 C55 83.99 55 84.98 55 86 C52.03 86.495 52.03 86.495 49 87 C49 87.99 49 88.98 49 90 C38.77 90 28.54 90 18 90 C18 89.01 18 88.02 18 87 C16.68 87 15.36 87 14 87 C14 85.68 14 84.36 14 83 C11.69 83 9.38 83 7 83 C7 80.69 7 78.38 7 76 C6.01 76 5.02 76 4 76 C3.67 75.01 3.34 74.02 3 73 C2.34 72.67 1.68 72.34 1 72 C0.00341111 67.74002856 -0.12187967 63.62118921 -0.11352539 59.26025391 C-0.11367142 58.61564209 -0.11381744 57.97103027 -0.1139679 57.30688477 C-0.11327661 55.19674195 -0.10552133 53.08668971 -0.09765625 50.9765625 C-0.09578928 49.5054021 -0.09436669 48.03424108 -0.09336853 46.56307983 C-0.08956533 42.70634215 -0.07975398 38.84964262 -0.06866455 34.99291992 C-0.05840302 31.05127478 -0.05386078 27.10962342 -0.04882812 23.16796875 C-0.03812958 15.44529316 -0.02055075 7.7226568 0 0 Z " fill="#E7E7E8" transform="translate(330,451)"/>
<path d="M0 0 C16.83 0 33.66 0 51 0 C51 5.94 51 11.88 51 18 C40.77 18 30.54 18 20 18 C20 23.61 20 29.22 20 35 C30.23 35 40.46 35 51 35 C51 40.61 51 46.22 51 52 C40.77 52 30.54 52 20 52 C20 58.93 20 65.86 20 73 C30.23 73 40.46 73 51 73 C51 78.61 51 84.22 51 90 C34.17 90 17.34 90 0 90 C0 60.3 0 30.6 0 0 Z " fill="#E9E9EA" transform="translate(183,451)"/>
<path d="M0 0 C0.33 0 0.66 0 1 0 C1 61.38 1 122.76 1 186 C0.67 186 0.34 186 0 186 C0 183.69 0 181.38 0 179 C-0.99 179 -1.98 179 -3 179 C-3 120.92 -3 62.84 -3 3 C-2.01 3 -1.02 3 0 3 C0 2.01 0 1.02 0 0 Z " fill="#98999B" transform="translate(151,111)"/>
<path d="M0 0 C0.33 0 0.66 0 1 0 C1 1.98 1 3.96 1 6 C1.99 6 2.98 6 4 6 C4 58.14 4 110.28 4 164 C3.01 164 2.02 164 1 164 C0.505 165.98 0.505 165.98 0 168 C0 112.56 0 57.12 0 0 Z " fill="#CACBCC" transform="translate(313,153)"/>
<path d="M0 0 C1.32 0 2.64 0 4 0 C4 2.31 4 4.62 4 7 C4.99 7 5.98 7 7 7 C7 54.52 7 102.04 7 151 C6.01 151 5.02 151 4 151 C4 154.63 4 158.26 4 162 C2.68 162 1.36 162 0 162 C0 160.68 0 159.36 0 158 C0.99 158 1.98 158 3 158 C3 107.18 3 56.36 3 4 C2.01 4 1.02 4 0 4 C0 2.68 0 1.36 0 0 Z " fill="#DCDDDE" transform="translate(303,159)"/>
<path d="M0 0 C6.6 0 13.2 0 20 0 C20 0.33 20 0.66 20 1 C14.39 1 8.78 1 3 1 C3 54.13 3 107.26 3 162 C2.01 162 1.02 162 0 162 C0 108.54 0 55.08 0 0 Z " fill="#15181D" transform="translate(159,128)"/>
<path d="M0 0 C6.93 0 13.86 0 21 0 C21 20.46 21 40.92 21 62 C20.01 62 19.02 62 18 62 C18 41.87 18 21.74 18 1 C13.38 1 8.76 1 4 1 C4 24.76 4 48.52 4 73 C3.01 72.67 2.02 72.34 1 72 C0.17731822 67.69591473 -0.12191486 63.63955538 -0.11352539 59.26025391 C-0.11367142 58.61564209 -0.11381744 57.97103027 -0.1139679 57.30688477 C-0.11327661 55.19674195 -0.10552133 53.08668971 -0.09765625 50.9765625 C-0.09578928 49.5054021 -0.09436669 48.03424108 -0.09336853 46.56307983 C-0.08956533 42.70634215 -0.07975398 38.84964262 -0.06866455 34.99291992 C-0.05840302 31.05127478 -0.05386078 27.10962342 -0.04882812 23.16796875 C-0.03812958 15.44529316 -0.02055075 7.7226568 0 0 Z " fill="#86888A" transform="translate(330,451)"/>
<path d="M0 0 C9.24 0 18.48 0 28 0 C28 1.32 28 2.64 28 4 C26.68 4 25.36 4 24 4 C24 3.01 24 2.02 24 1 C17.4 1 10.8 1 4 1 C4 30.37 4 59.74 4 90 C2.68 90 1.36 90 0 90 C0 60.3 0 30.6 0 0 Z " fill="#ABACAE" transform="translate(86,451)"/>
<path d="M0 0 C6.93 0 13.86 0 21 0 C21 29.7 21 59.4 21 90 C19.68 90 18.36 90 17 90 C17 60.63 17 31.26 17 1 C11.39 1 5.78 1 0 1 C0 0.67 0 0.34 0 0 Z " fill="#5D5F62" transform="translate(296,451)"/>
<path d="M0 0 C16.83 0 33.66 0 51 0 C51 0.33 51 0.66 51 1 C35.16 1 19.32 1 3 1 C3 30.37 3 59.74 3 90 C2.01 90 1.02 90 0 90 C0 60.3 0 30.6 0 0 Z " fill="#9E9FA1" transform="translate(183,451)"/>
<path d="M0 0 C6.93 0 13.86 0 21 0 C21 1.32 21 2.64 21 4 C21.99 4 22.98 4 24 4 C24 5.98 24 7.96 24 10 C22.68 9.67 21.36 9.34 20 9 C20 6.36 20 3.72 20 1 C14.39 1 8.78 1 3 1 C3 30.37 3 59.74 3 90 C2.01 90 1.02 90 0 90 C0 60.3 0 30.6 0 0 Z " fill="#A5A6A8" transform="translate(248,451)"/>
<path d="M0 0 C9.24 0 18.48 0 28 0 C28 0.33 28 0.66 28 1 C25.69 1 23.38 1 21 1 C21 3.31 21 5.62 21 8 C18.69 8 16.38 8 14 8 C14 8.99 14 9.98 14 11 C13.01 11 12.02 11 11 11 C11 12.32 11 13.64 11 15 C9.68 15 8.36 15 7 15 C7 15.99 7 16.98 7 18 C6.01 18 5.02 18 4 18 C4 19.32 4 20.64 4 22 C2.68 22 1.36 22 0 22 C0 14.74 0 7.48 0 0 Z " fill="#DFDFE0" transform="translate(0,0)"/>
<path d="M0 0 C0.99 0 1.98 0 3 0 C3 29.37 3 58.74 3 89 C2.01 89 1.02 89 0 89 C0 59.63 0 30.26 0 0 Z " fill="#606265" transform="translate(169,452)"/>
<path d="M0 0 C0.99 0 1.98 0 3 0 C3 17.82 3 35.64 3 54 C0.69 54 -1.62 54 -4 54 C-4 50.7 -4 47.4 -4 44 C-4.99 44 -5.98 44 -7 44 C-7 43.01 -7 42.02 -7 41 C-8.32 41 -9.64 41 -11 41 C-11 38.69 -11 36.38 -11 34 C-11.99 34 -12.98 34 -14 34 C-14 31.69 -14 29.38 -14 27 C-14.99 27 -15.98 27 -17 27 C-17 25.68 -17 24.36 -17 23 C-15.68 23 -14.36 23 -13 23 C-13 25.31 -13 27.62 -13 30 C-12.01 30 -11.02 30 -10 30 C-10 32.31 -10 34.62 -10 37 C-8.68 37 -7.36 37 -6 37 C-6 38.32 -6 39.64 -6 41 C-5.01 41 -4.02 41 -3 41 C-3 43.31 -3 45.62 -3 48 C-2.01 48 -1.02 48 0 48 C0 32.16 0 16.32 0 0 Z " fill="#C9CACB" transform="translate(296,452)"/>
<path d="M0 0 C1.32 0 2.64 0 4 0 C4 0.99 4 1.98 4 3 C4.99 3 5.98 3 7 3 C7 4.32 7 5.64 7 7 C6.01 7 5.02 7 4 7 C4 22.84 4 38.68 4 55 C2.68 55 1.36 55 0 55 C0 36.85 0 18.7 0 0 Z " fill="#626467" transform="translate(265,486)"/>
<path d="M0 0 C3.63 0 7.26 0 11 0 C11 0.99 11 1.98 11 3 C7.7 3 4.4 3 1 3 C1 56.46 1 109.92 1 165 C1.99 165 2.98 165 4 165 C4 166.32 4 167.64 4 169 C2.68 169.33 1.36 169.66 0 170 C0 113.9 0 57.8 0 0 Z " fill="#8B8C8F" transform="translate(158,125)"/>
<path d="M0 0 C0.99 0 1.98 0 3 0 C3 1.98 3 3.96 3 6 C4.32 6 5.64 6 7 6 C7 9.63 7 13.26 7 17 C7.99 17 8.98 17 10 17 C10 17.99 10 18.98 10 20 C8.68 20 7.36 20 6 20 C6 16.7 6 13.4 6 10 C5.01 10 4.02 10 3 10 C3 25.84 3 41.68 3 58 C2.01 58 1.02 58 0 58 C0 38.86 0 19.72 0 0 Z " fill="#747679" transform="translate(104,483)"/>
<path d="M0 0 C0.99 0.33 1.98 0.66 3 1 C2.34 1 1.68 1 1 1 C1 57.43 1 113.86 1 172 C1.99 172 2.98 172 4 172 C4 175.63 4 179.26 4 183 C3.67 183 3.34 183 3 183 C3 180.69 3 178.38 3 176 C2.01 176 1.02 176 0 176 C0 117.92 0 59.84 0 0 Z " fill="#737578" transform="translate(148,114)"/>
<path d="M0 0 C0.33 0 0.66 0 1 0 C1 1.98 1 3.96 1 6 C1.99 6 2.98 6 4 6 C4 58.14 4 110.28 4 164 C3.01 164 2.02 164 1 164 C0.505 165.98 0.505 165.98 0 168 C0 165.69 0 163.38 0 161 C0.99 161 1.98 161 3 161 C3 112.16 3 63.32 3 13 C2.34 13 1.68 13 1 13 C-0.00496852 9.98509443 -0.10335303 7.95818308 -0.0625 4.8125 C-0.05347656 3.91144531 -0.04445313 3.01039063 -0.03515625 2.08203125 C-0.02355469 1.39496094 -0.01195312 0.70789063 0 0 Z " fill="#939497" transform="translate(313,153)"/>
<path d="M0 0 C0.33 0.99 0.66 1.98 1 3 C1.99 3 2.98 3 4 3 C4.02532087 9.78099776 4.04285457 16.56198337 4.05493164 23.34301758 C4.05996551 25.6506394 4.06679305 27.95825803 4.07543945 30.26586914 C4.08754635 33.57959786 4.09323773 36.89328448 4.09765625 40.20703125 C4.10281754 41.2414888 4.10797882 42.27594635 4.11329651 43.3417511 C4.11337204 44.3025206 4.11344757 45.2632901 4.11352539 46.25317383 C4.115746 47.09922684 4.11796661 47.94527985 4.12025452 48.81697083 C4 51 4 51 3 54 C-0.3 54 -3.6 54 -7 54 C-7 53.34 -7 52.68 -7 52 C-7.99 51.67 -8.98 51.34 -10 51 C-6.7 51 -3.4 51 0 51 C0 40.77 0 30.54 0 20 C0.99 20 1.98 20 3 20 C3 16.7 3 13.4 3 10 C2.34 10 1.68 10 1 10 C-0.1577506 6.52674819 -0.06866652 3.63932552 0 0 Z " fill="#5C5E61" transform="translate(282,84)"/>
<path d="M0 0 C2.31 0 4.62 0 7 0 C7 19.47 7 38.94 7 59 C6.01 59 5.02 59 4 59 C4 40.85 4 22.7 4 4 C2.68 4 1.36 4 0 4 C0 2.68 0 1.36 0 0 Z " fill="#B2B3B5" transform="translate(148,482)"/>
<path d="M0 0 C0.33 0 0.66 0 1 0 C1 57.75 1 115.5 1 175 C0.67 175 0.34 175 0 175 C0 120.55 0 66.1 0 10 C-0.66 10 -1.32 10 -2 10 C-2 8.02 -2 6.04 -2 4 C-1.34 4 -0.68 4 0 4 C0 2.68 0 1.36 0 0 Z " fill="#BBBBBD" transform="translate(151,111)"/>
<path d="M0 0 C1.32 0 2.64 0 4 0 C4 53.46 4 106.92 4 162 C2.68 162 1.36 162 0 162 C0 160.68 0 159.36 0 158 C0.99 158 1.98 158 3 158 C3 107.18 3 56.36 3 4 C2.01 4 1.02 4 0 4 C0 2.68 0 1.36 0 0 Z " fill="#8A8B8E" transform="translate(303,159)"/>
<path d="M0 0 C0.99 0 1.98 0 3 0 C3 20.13 3 40.26 3 61 C2.01 61 1.02 61 0 61 C0 40.87 0 20.74 0 0 Z " fill="#505256" transform="translate(396,452)"/>
<path d="M0 0 C0.99 0 1.98 0 3 0 C3 20.13 3 40.26 3 61 C2.01 61 1.02 61 0 61 C0 40.87 0 20.74 0 0 Z " fill="#A8A8AA" transform="translate(331,452)"/>
<path d="M0 0 C0.99 0 1.98 0 3 0 C3 19.14 3 38.28 3 58 C2.01 58 1.02 58 0 58 C0 38.86 0 19.72 0 0 Z " fill="#DCDDDD" transform="translate(379,452)"/>
<path d="M0 0 C1.32 0 2.64 0 4 0 C4 3.63 4 7.26 4 11 C4.99 11 5.98 11 7 11 C7 21.23 7 31.46 7 42 C6.01 42 5.02 42 4 42 C4 49.92 4 57.84 4 66 C3.67 66 3.34 66 3 66 C3 45.54 3 25.08 3 4 C2.01 4 1.02 4 0 4 C0 2.68 0 1.36 0 0 Z " fill="#A5A6A8" transform="translate(289,73)"/>
<path d="M0 0 C0.99 0 1.98 0 3 0 C3 5.61 3 11.22 3 17 C13.23 17 23.46 17 34 17 C34 17.99 34 18.98 34 20 C22.78 20 11.56 20 0 20 C0 13.4 0 6.8 0 0 Z " fill="#727477" transform="translate(200,469)"/>
<path d="M0 0 C9.24 0 18.48 0 28 0 C28 1.32 28 2.64 28 4 C26.68 4 25.36 4 24 4 C24 3.01 24 2.02 24 1 C16.41 1 8.82 1 1 1 C1 30.37 1 59.74 1 90 C0.67 90 0.34 90 0 90 C0 60.3 0 30.6 0 0 Z " fill="#66686C" transform="translate(86,451)"/>
<path d="M0 0 C2.31 0 4.62 0 7 0 C7 0.99 7 1.98 7 3 C14.92 3 22.84 3 31 3 C31 3.99 31 4.98 31 6 C35.62 6 40.24 6 45 6 C45 7.32 45 8.64 45 10 C42.69 10 40.38 10 38 10 C38 9.01 38 8.02 38 7 C31.07 7 24.14 7 17 7 C17 6.01 17 5.02 17 4 C16.10796875 4.01160156 15.2159375 4.02320312 14.296875 4.03515625 C12.54117188 4.04869141 12.54117188 4.04869141 10.75 4.0625 C9.00976562 4.07990234 9.00976562 4.07990234 7.234375 4.09765625 C4.59022872 4.01782092 2.50173909 3.78643778 0 3 C0 2.01 0 1.02 0 0 Z " fill="#16191F" transform="translate(179,118)"/>
<path d="M0 0 C10.23 0 20.46 0 31 0 C31 1.32 31 2.64 31 4 C20.77 4 10.54 4 0 4 C0 2.68 0 1.36 0 0 Z " fill="#7D7F82" transform="translate(203,465)"/>
<path d="M0 0 C6.93 0 13.86 0 21 0 C21 0.33 21 0.66 21 1 C14.4 1 7.8 1 1 1 C1 21.13 1 41.26 1 62 C1.99 62 2.98 62 4 62 C4 65.63 4 69.26 4 73 C3.01 72.67 2.02 72.34 1 72 C0.17731822 67.69591473 -0.12191486 63.63955538 -0.11352539 59.26025391 C-0.11367142 58.61564209 -0.11381744 57.97103027 -0.1139679 57.30688477 C-0.11327661 55.19674195 -0.10552133 53.08668971 -0.09765625 50.9765625 C-0.09578928 49.5054021 -0.09436669 48.03424108 -0.09336853 46.56307983 C-0.08956533 42.70634215 -0.07975398 38.84964262 -0.06866455 34.99291992 C-0.05840302 31.05127478 -0.05386078 27.10962342 -0.04882812 23.16796875 C-0.03812958 15.44529316 -0.02055075 7.7226568 0 0 Z " fill="#5A5C60" transform="translate(330,451)"/>
<path d="M0 0 C4.62 0 9.24 0 14 0 C14 0.99 14 1.98 14 3 C22.91 3 31.82 3 41 3 C41.495 4.98 41.495 4.98 42 7 C37.38 7 32.76 7 28 7 C28 6.01 28 5.02 28 4 C20.08 4 12.16 4 4 4 C4 3.01 4 2.02 4 1 C2.68 0.67 1.36 0.34 0 0 Z " fill="#CACBCC" transform="translate(227,331)"/>
<path d="M0 0 C2.64 0 5.28 0 8 0 C8 0.99 8 1.98 8 3 C8.7113208 2.99476318 9.4226416 2.98952637 10.15551758 2.98413086 C13.37450275 2.96335982 16.59347383 2.95033942 19.8125 2.9375 C20.93205078 2.92912109 22.05160156 2.92074219 23.20507812 2.91210938 C24.81479492 2.90727539 24.81479492 2.90727539 26.45703125 2.90234375 C27.9416687 2.89448853 27.9416687 2.89448853 29.45629883 2.88647461 C32 3 32 3 35 4 C35 4.99 35 5.98 35 7 C29.39 7 23.78 7 18 7 C18 6.01 18 5.02 18 4 C17.02417969 4.01160156 16.04835937 4.02320313 15.04296875 4.03515625 C13.77066406 4.04417969 12.49835938 4.05320312 11.1875 4.0625 C9.29064453 4.07990234 9.29064453 4.07990234 7.35546875 4.09765625 C4 4 4 4 1 3 C0.67 2.01 0.34 1.02 0 0 Z " fill="#DDDDDE" transform="translate(189,324)"/>
<path d="M0 0 C0.99 0 1.98 0 3 0 C3 7.59 3 15.18 3 23 C5.31 23 7.62 23 10 23 C10 24.32 10 25.64 10 27 C7.69 27 5.38 27 3 27 C3 26.01 3 25.02 3 24 C2.01 24 1.02 24 0 24 C0 16.08 0 8.16 0 0 Z " fill="#585A5D" transform="translate(293,115)"/>
<path d="M0 0 C2.31 0 4.62 0 7 0 C7 0.99 7 1.98 7 3 C15.91 3 24.82 3 34 3 C34.495 4.98 34.495 4.98 35 7 C30.38 7 25.76 7 21 7 C21 6.01 21 5.02 21 4 C14.07 4 7.14 4 0 4 C0 2.68 0 1.36 0 0 Z " fill="#C8C9CA" transform="translate(258,142)"/>
<path d="M0 0 C5.94 0 11.88 0 18 0 C18 0.33 18 0.66 18 1 C12.39 1 6.78 1 1 1 C1 23.44 1 45.88 1 69 C-0.32 69 -1.64 69 -3 69 C-3 68.01 -3 67.02 -3 66 C-2.01 66 -1.02 66 0 66 C0 44.22 0 22.44 0 0 Z " fill="#5E5F63" transform="translate(378,451)"/>
<path d="M0 0 C10.23 0 20.46 0 31 0 C31 0.99 31 1.98 31 3 C20.77 3 10.54 3 0 3 C0 2.01 0 1.02 0 0 Z " fill="#86888A" transform="translate(203,524)"/>
<path d="M0 0 C2.31 0 4.62 0 7 0 C7 0.99 7 1.98 7 3 C14.92 3 22.84 3 31 3 C31 3.99 31 4.98 31 6 C32.485 6.495 32.485 6.495 34 7 C29.38 7 24.76 7 20 7 C20 6.01 20 5.02 20 4 C18.80761719 4.01160156 17.61523438 4.02320313 16.38671875 4.03515625 C14.82031406 4.04453592 13.25390769 4.05363593 11.6875 4.0625 C10.50897461 4.07506836 10.50897461 4.07506836 9.30664062 4.08789062 C8.54931641 4.09111328 7.79199219 4.09433594 7.01171875 4.09765625 C5.96697388 4.10551147 5.96697388 4.10551147 4.90112305 4.11352539 C3 4 3 4 0 3 C0 2.01 0 1.02 0 0 Z " fill="#BEBFC1" transform="translate(224,321)"/>
<path d="M0 0 C6.625 -0.125 6.625 -0.125 10 1 C10 1.66 10 2.32 10 3 C11.22976562 2.98839844 12.45953125 2.97679687 13.7265625 2.96484375 C15.35937347 2.95545978 16.9921861 2.94636023 18.625 2.9375 C19.83736328 2.92493164 19.83736328 2.92493164 21.07421875 2.91210938 C25.50341918 2.8941045 29.63883424 3.10377338 34 4 C34 4.99 34 5.98 34 7 C30.7 7 27.4 7 24 7 C24 6.01 24 5.02 24 4 C16.08 4 8.16 4 0 4 C0 2.68 0 1.36 0 0 Z " fill="#B5B6B8" transform="translate(179,128)"/>
<path d="M0 0 C0.33 0 0.66 0 1 0 C1 24.75 1 49.5 1 75 C0.01 75 -0.98 75 -2 75 C-2 73.68 -2 72.36 -2 71 C-1.34 71 -0.68 71 0 71 C0 47.57 0 24.14 0 0 Z " fill="#C3C4C6" transform="translate(395,452)"/>
<path d="M0 0 C2.31 0 4.62 0 7 0 C7 0.99 7 1.98 7 3 C15.91 3 24.82 3 34 3 C34 4.32 34 5.64 34 7 C30.7 7 27.4 7 24 7 C24 6.01 24 5.02 24 4 C23.37955811 4.00523682 22.75911621 4.01047363 22.11987305 4.01586914 C19.30909233 4.03665466 16.49832779 4.04966517 13.6875 4.0625 C12.22280273 4.07506836 12.22280273 4.07506836 10.72851562 4.08789062 C9.79072266 4.09111328 8.85292969 4.09433594 7.88671875 4.09765625 C7.02264404 4.10289307 6.15856934 4.10812988 5.26831055 4.11352539 C3 4 3 4 0 3 C0 2.01 0 1.02 0 0 Z " fill="#C3C4C5" transform="translate(217,135)"/>
<path d="M0 0 C0.33 0 0.66 0 1 0 C1 22.77 1 45.54 1 69 C0.67 69 0.34 69 0 69 C0 49.53 0 30.06 0 10 C-0.66 10 -1.32 10 -2 10 C-2 8.02 -2 6.04 -2 4 C-1.34 4 -0.68 4 0 4 C0 2.68 0 1.36 0 0 Z " fill="#C3C4C5" transform="translate(151,111)"/>
<path d="M0 0 C1.32 0 2.64 0 4 0 C4.02316034 8.16236415 4.04093395 16.32471459 4.05181217 24.48710346 C4.0570329 28.27714002 4.0641159 32.06715411 4.07543945 35.85717773 C4.08629704 39.51408802 4.09228295 43.17097668 4.09487724 46.82790184 C4.0967263 48.22376025 4.10033699 49.61961747 4.10573006 51.01546669 C4.11297844 52.96903964 4.11340838 54.92263431 4.11352539 56.8762207 C4.115746 57.9887471 4.11796661 59.1012735 4.12025452 60.24751282 C4 63 4 63 3 66 C2.01 66 1.02 66 0 66 C0 64.68 0 63.36 0 62 C0.99 62 1.98 62 3 62 C3 41.87 3 21.74 3 1 C2.01 0.67 1.02 0.34 0 0 Z " fill="#17191F" transform="translate(396,451)"/>
<path d="M0 0 C1.32 0 2.64 0 4 0 C4 21.78 4 43.56 4 66 C3.67 66 3.34 66 3 66 C3 45.54 3 25.08 3 4 C2.01 4 1.02 4 0 4 C0 2.68 0 1.36 0 0 Z " fill="#CBCCCD" transform="translate(289,73)"/>
<path d="M0 0 C0.33 0 0.66 0 1 0 C1 20.13 1 40.26 1 61 C1.99 61 2.98 61 4 61 C4 62.32 4 63.64 4 65 C2.68 65 1.36 65 0 65 C0 43.55 0 22.1 0 0 Z " fill="#C4C4C5" transform="translate(347,452)"/>
<path d="M0 0 C6.6 0 13.2 0 20 0 C20 1.32 20 2.64 20 4 C17.2291017 4.02696009 14.4584655 4.04681952 11.6875 4.0625 C10.50897461 4.07506836 10.50897461 4.07506836 9.30664062 4.08789062 C8.54931641 4.09111328 7.79199219 4.09433594 7.01171875 4.09765625 C5.96697388 4.10551147 5.96697388 4.10551147 4.90112305 4.11352539 C3 4 3 4 0 3 C0 2.01 0 1.02 0 0 Z " fill="#929396" transform="translate(276,338)"/>
<path d="M0 0 C6.93 0 13.86 0 21 0 C21 0.99 21 1.98 21 3 C25.62 3 30.24 3 35 3 C35 3.33 35 3.66 35 4 C25.76 4 16.52 4 7 4 C7 3.01 7 2.02 7 1 C4.69 1 2.38 1 0 1 C0 0.67 0 0.34 0 0 Z " fill="#23252A" transform="translate(196,317)"/>
<path d="M0 0 C1.32 0 2.64 0 4 0 C4 18.15 4 36.3 4 55 C3.67 55 3.34 55 3 55 C3 39.16 3 23.32 3 7 C2.01 7 1.02 7 0 7 C0 4.69 0 2.38 0 0 Z " fill="#4C4E53" transform="translate(148,486)"/>
<path d="M0 0 C6.625 -0.125 6.625 -0.125 10 1 C10 1.66 10 2.32 10 3 C17.92 3 25.84 3 34 3 C34 4.32 34 5.64 34 7 C30.7 7 27.4 7 24 7 C24 6.01 24 5.02 24 4 C22.80761719 4.01160156 21.61523438 4.02320313 20.38671875 4.03515625 C18.82031406 4.04453592 17.25390769 4.05363593 15.6875 4.0625 C14.50897461 4.07506836 14.50897461 4.07506836 13.30664062 4.08789062 C12.54931641 4.09111328 11.79199219 4.09433594 11.01171875 4.09765625 C9.96697388 4.10551147 9.96697388 4.10551147 8.90112305 4.11352539 C7 4 7 4 4 3 C4 2.34 4 1.68 4 1 C2.68 0.67 1.36 0.34 0 0 Z " fill="#191C22" transform="translate(234,128)"/>
<path d="M0 0 C1.32 0 2.64 0 4 0 C4 2.31 4 4.62 4 7 C4.99 7 5.98 7 7 7 C7 9.31 7 11.62 7 14 C8.32 14 9.64 14 11 14 C11 15.32 11 16.64 11 18 C11.99 18 12.98 18 14 18 C14 20.31 14 22.62 14 25 C13.67 23.68 13.34 22.36 13 21 C12.01 21 11.02 21 10 21 C10 20.01 10 19.02 10 18 C8.68 18 7.36 18 6 18 C6 15.69 6 13.38 6 11 C5.01 11 4.02 11 3 11 C3 8.69 3 6.38 3 4 C2.01 4 1.02 4 0 4 C0 2.68 0 1.36 0 0 Z " fill="#AEAFB1" transform="translate(279,475)"/>
<path d="M0 0 C0.33 0 0.66 0 1 0 C1 21.45 1 42.9 1 65 C1.66 65 2.32 65 3 65 C3 65.99 3 66.98 3 68 C2.01 68 1.02 68 0 68 C0 45.56 0 23.12 0 0 Z " fill="#15181D" transform="translate(351,452)"/>
<path d="M0 0 C0.33 0 0.66 0 1 0 C1.02901394 3.4374823 1.04680335 6.87493312 1.0625 10.3125 C1.07087891 11.28896484 1.07925781 12.26542969 1.08789062 13.27148438 C1.09111328 14.20927734 1.09433594 15.14707031 1.09765625 16.11328125 C1.10289307 16.97735596 1.10812988 17.84143066 1.11352539 18.73168945 C1 21 1 21 0 24 C-3.3 24 -6.6 24 -10 24 C-10 23.34 -10 22.68 -10 22 C-10.99 21.67 -11.98 21.34 -13 21 C-9.37 21 -5.74 21 -2 21 C-2 17.7 -2 14.4 -2 11 C-1.34 11 -0.68 11 0 11 C0 7.37 0 3.74 0 0 Z " fill="#828386" transform="translate(285,114)"/>
<path d="M0 0 C2.31 0 4.62 0 7 0 C7 0.99 7 1.98 7 3 C7.97582031 2.98839844 8.95164062 2.97679687 9.95703125 2.96484375 C11.22933594 2.95582031 12.50164062 2.94679687 13.8125 2.9375 C15.07707031 2.92589844 16.34164063 2.91429687 17.64453125 2.90234375 C21 3 21 3 24 4 C24 4.66 24 5.32 24 6 C27.3 6 30.6 6 34 6 C34.33 5.01 34.66 4.02 35 3 C35 4.32 35 5.64 35 7 C29.06 7 23.12 7 17 7 C17 6.01 17 5.02 17 4 C16.10796875 4.01160156 15.2159375 4.02320313 14.296875 4.03515625 C12.54117187 4.04869141 12.54117187 4.04869141 10.75 4.0625 C9.00976562 4.07990234 9.00976562 4.07990234 7.234375 4.09765625 C4.59022872 4.01782092 2.50173909 3.78643778 0 3 C0 2.01 0 1.02 0 0 Z " fill="#E5E6E6" transform="translate(251,132)"/>
<path d="M0 0 C1.32 0 2.64 0 4 0 C4 3.3 4 6.6 4 10 C4.99 10 5.98 10 7 10 C7 14.62 7 19.24 7 24 C7.99 24 8.98 24 10 24 C10 25.32 10 26.64 10 28 C8.68 28 7.36 28 6 28 C6 24.37 6 20.74 6 17 C5.01 17 4.02 17 3 17 C3 12.38 3 7.76 3 3 C2.01 3 1.02 3 0 3 C0 2.01 0 1.02 0 0 Z " fill="#2E3135" transform="translate(114,510)"/>
<path d="M0 0 C10.23 0 20.46 0 31 0 C31 4.62 31 9.24 31 14 C30.01 14 29.02 14 28 14 C28 9.71 28 5.42 28 1 C18.76 1 9.52 1 0 1 C0 0.67 0 0.34 0 0 Z " fill="#D4D4D6" transform="translate(203,489)"/>
<path d="M0 0 C0.33 0.99 0.66 1.98 1 3 C7.6 3 14.2 3 21 3 C20.01 3.33 19.02 3.66 18 4 C18 4.99 18 5.98 18 7 C13.38 7 8.76 7 4 7 C4 6.01 4 5.02 4 4 C2.68 4 1.36 4 0 4 C0 2.68 0 1.36 0 0 Z " fill="#45474B" transform="translate(354,520)"/>
<path d="M0 0 C0.99 0 1.98 0 3 0 C4.18681726 3.56045177 4.09689832 6.43808337 4.0625 10.1875 C4.05347656 11.45980469 4.04445312 12.73210938 4.03515625 14.04296875 C4.02355469 15.01878906 4.01195312 15.99460937 4 17 C2.68 17 1.36 17 0 17 C0 11.39 0 5.78 0 0 Z " fill="#2F3136" transform="translate(234,524)"/>
<path d="M0 0 C1.32 0 2.64 0 4 0 C4 0.99 4 1.98 4 3 C3.01 3 2.02 3 1 3 C1 20.16 1 37.32 1 55 C0.67 55 0.34 55 0 55 C0 36.85 0 18.7 0 0 Z " fill="#848588" transform="translate(265,486)"/>
<path d="M0 0 C0.99 0 1.98 0 3 0 C3 6.93 3 13.86 3 21 C2.01 21 1.02 21 0 21 C0 14.07 0 7.14 0 0 Z " fill="#7E8082" transform="translate(200,503)"/>
<path d="M0 0 C0.99 0 1.98 0 3 0 C3 6.6 3 13.2 3 20 C2.01 20 1.02 20 0 20 C0 13.4 0 6.8 0 0 Z " fill="#858789" transform="translate(200,469)"/>
<path d="M0 0 C0.33 0 0.66 0 1 0 C1 16.83 1 33.66 1 51 C-0.32 51 -1.64 51 -3 51 C-3 50.01 -3 49.02 -3 48 C-2.01 48 -1.02 48 0 48 C0 32.16 0 16.32 0 0 Z " fill="#A4A5A7" transform="translate(296,452)"/>
<path d="M0 0 C2.31 0 4.62 0 7 0 C7 0.99 7 1.98 7 3 C7.97582031 2.98839844 8.95164063 2.97679688 9.95703125 2.96484375 C11.22933594 2.95582031 12.50164062 2.94679688 13.8125 2.9375 C15.07707031 2.92589844 16.34164062 2.91429688 17.64453125 2.90234375 C21 3 21 3 24 4 C24 4.99 24 5.98 24 7 C21.69 7 19.38 7 17 7 C17 6.01 17 5.02 17 4 C16.10796875 4.01160156 15.2159375 4.02320312 14.296875 4.03515625 C12.54117188 4.04869141 12.54117188 4.04869141 10.75 4.0625 C9.00976562 4.07990234 9.00976562 4.07990234 7.234375 4.09765625 C4.59022872 4.01782092 2.50173909 3.78643778 0 3 C0 2.01 0 1.02 0 0 Z " fill="#8C8D90" transform="translate(179,118)"/>
<path d="M0 0 C6.93 0 13.86 0 21 0 C21 1.32 21 2.64 21 4 C19.68 4 18.36 4 17 4 C17 3.01 17 2.02 17 1 C13.7 1 10.4 1 7 1 C7 1.99 7 2.98 7 4 C4.69 4 2.38 4 0 4 C0 2.68 0 1.36 0 0 Z " fill="#606265" transform="translate(258,73)"/>
<path d="M0 0 C2.31 0 4.62 0 7 0 C6.01 0.33 5.02 0.66 4 1 C4 1.99 4 2.98 4 4 C-6.23 4 -16.46 4 -27 4 C-27 3.01 -27 2.02 -27 1 C-26.01 1 -25.02 1 -24 1 C-24 1.66 -24 2.32 -24 3 C-16.08 3 -8.16 3 0 3 C0 2.01 0 1.02 0 0 Z " fill="#BFC0C2" transform="translate(375,537)"/>
<path d="M0 0 C1.32 0 2.64 0 4 0 C4 2.31 4 4.62 4 7 C3.01 7 2.02 7 1 7 C1 9.31 1 11.62 1 14 C-0.32 14 -1.64 14 -3 14 C-3 12.68 -3 11.36 -3 10 C-2.01 10 -1.02 10 0 10 C0 6.7 0 3.4 0 0 Z " fill="#6B6D70" transform="translate(134,479)"/>
<path d="M0 0 C6.93 0 13.86 0 21 0 C21 1.32 21 2.64 21 4 C21.99 4 22.98 4 24 4 C24 5.98 24 7.96 24 10 C22.68 9.67 21.36 9.34 20 9 C20 6.36 20 3.72 20 1 C13.4 1 6.8 1 0 1 C0 0.67 0 0.34 0 0 Z " fill="#6C6E72" transform="translate(248,451)"/>
<path d="M0 0 C4.62 0 9.24 0 14 0 C14 0.99 14 1.98 14 3 C14.99 3.33 15.98 3.66 17 4 C12.71 4 8.42 4 4 4 C4 3.01 4 2.02 4 1 C2.68 0.67 1.36 0.34 0 0 Z " fill="#67696C" transform="translate(227,331)"/>
<path d="M0 0 C0.33 0.99 0.66 1.98 1 3 C1.99 3 2.98 3 4 3 C4 5.31 4 7.62 4 10 C4.99 10 5.98 10 7 10 C7 11.32 7 12.64 7 14 C5.68 13.67 4.36 13.34 3 13 C3 12.01 3 11.02 3 10 C2.01 10 1.02 10 0 10 C0 6.7 0 3.4 0 0 Z " fill="#515357" transform="translate(282,510)"/>
<path d="M0 0 C0 2.31 0 4.62 0 7 C-0.99 7 -1.98 7 -3 7 C-3 10.3 -3 13.6 -3 17 C-4.32 17.33 -5.64 17.66 -7 18 C-7 16.68 -7 15.36 -7 14 C-6.01 14 -5.02 14 -4 14 C-4.01160156 13.31292969 -4.02320313 12.62585938 -4.03515625 11.91796875 C-4.04417969 11.01691406 -4.05320313 10.11585938 -4.0625 9.1875 C-4.07410156 8.29417969 -4.08570313 7.40085937 -4.09765625 6.48046875 C-4 4 -4 4 -3 1 C-1 0 -1 0 0 0 Z " fill="#8B8D8F" transform="translate(145,458)"/>
<path d="M0 0 C1.32 0 2.64 0 4 0 C4 1.32 4 2.64 4 4 C1.69 4 -0.62 4 -3 4 C-3 4.99 -3 5.98 -3 7 C-5.31 7 -7.62 7 -10 7 C-10 6.01 -10 5.02 -10 4 C-6.52674819 2.8422494 -3.63932552 2.93133348 0 3 C0 2.01 0 1.02 0 0 Z " fill="#B8B9BB" transform="translate(172,111)"/>
<path d="M0 0 C4.62 0 9.24 0 14 0 C14 0.99 14 1.98 14 3 C9.38 3 4.76 3 0 3 C0 2.01 0 1.02 0 0 Z " fill="#44474B" transform="translate(272,328)"/>
<path d="M0 0 C2.31 0 4.62 0 7 0 C7 0.99 7 1.98 7 3 C12.61 3 18.22 3 24 3 C24 3.33 24 3.66 24 4 C20.5625177 4.02901394 17.12506688 4.04680335 13.6875 4.0625 C12.22280273 4.07506836 12.22280273 4.07506836 10.72851562 4.08789062 C9.79072266 4.09111328 8.85292969 4.09433594 7.88671875 4.09765625 C7.02264404 4.10289307 6.15856934 4.10812988 5.26831055 4.11352539 C3 4 3 4 0 3 C0 2.01 0 1.02 0 0 Z " fill="#34363B" transform="translate(255,324)"/>
<path d="M0 0 C6.625 -0.125 6.625 -0.125 10 1 C10 1.66 10 2.32 10 3 C11.32 3.33 12.64 3.66 14 4 C9.38 4 4.76 4 0 4 C0 2.68 0 1.36 0 0 Z " fill="#707275" transform="translate(179,128)"/>
<path d="M0 0 C2.75006608 -0.0270203 5.49986546 -0.04684883 8.25 -0.0625 C9.02730469 -0.07087891 9.80460938 -0.07925781 10.60546875 -0.08789062 C11.73662109 -0.09272461 11.73662109 -0.09272461 12.890625 -0.09765625 C13.92751465 -0.10551147 13.92751465 -0.10551147 14.98535156 -0.11352539 C17.09973898 0.00562029 18.96641515 0.42381763 21 1 C21 1.66 21 2.32 21 3 C21.99 3.33 22.98 3.66 24 4 C20.7 4 17.4 4 14 4 C14 3.01 14 2.02 14 1 C9.38 1 4.76 1 0 1 C0 0.67 0 0.34 0 0 Z " fill="#BFBFC1" transform="translate(217,128)"/>
<path d="M0 0 C0.99 0 1.98 0 3 0 C3 4.29 3 8.58 3 13 C2.01 13 1.02 13 0 13 C0 8.71 0 4.42 0 0 Z " fill="#383A3F" transform="translate(234,452)"/>
<path d="M0 0 C1.32 0 2.64 0 4 0 C4 0.99 4 1.98 4 3 C11.92 3 19.84 3 28 3 C28 3.33 28 3.66 28 4 C19.09 4 10.18 4 1 4 C0.67 2.68 0.34 1.36 0 0 Z " fill="#DCDDDE" transform="translate(268,328)"/>
<path d="M0 0 C2.31 0 4.62 0 7 0 C7 0.99 7 1.98 7 3 C10.63 3 14.26 3 18 3 C18 3.33 18 3.66 18 4 C12.06 4 6.12 4 0 4 C0 2.68 0 1.36 0 0 Z " fill="#606265" transform="translate(258,142)"/>
<path d="M0 0 C0.99 0 1.98 0 3 0 C3 1.32 3 2.64 3 4 C2.34 4 1.68 4 1 4 C1 12.91 1 21.82 1 31 C0.67 31 0.34 31 0 31 C0 20.77 0 10.54 0 0 Z " fill="#45474B" transform="translate(282,104)"/>
<path d="M0 0 C1.32 0 2.64 0 4 0 C4 1.32 4 2.64 4 4 C3.01 4 2.02 4 1 4 C1 7.3 1 10.6 1 14 C-0.32 14 -1.64 14 -3 14 C-3 12.68 -3 11.36 -3 10 C-2.01 10 -1.02 10 0 10 C0 6.7 0 3.4 0 0 Z " fill="#818285" transform="translate(134,527)"/>
<path d="M0 0 C1.32 0 2.64 0 4 0 C4 2.31 4 4.62 4 7 C4.99 7 5.98 7 7 7 C7 9.31 7 11.62 7 14 C6.67 13.01 6.34 12.02 6 11 C5.01 11 4.02 11 3 11 C3 8.69 3 6.38 3 4 C2.01 4 1.02 4 0 4 C0 2.68 0 1.36 0 0 Z " fill="#303236" transform="translate(272,496)"/>
<path d="M0 0 C1.32 0 2.64 0 4 0 C4 3.3 4 6.6 4 10 C4.99 10 5.98 10 7 10 C7 12.31 7 14.62 7 17 C6.67 16.01 6.34 15.02 6 14 C5.01 14 4.02 14 3 14 C3 10.37 3 6.74 3 3 C2.01 3 1.02 3 0 3 C0 2.01 0 1.02 0 0 Z " fill="#707275" transform="translate(114,462)"/>
<path d="M0 0 C4.62 0 9.24 0 14 0 C14 0.99 14 1.98 14 3 C14.99 3.33 15.98 3.66 17 4 C13.7 4 10.4 4 7 4 C7 3.01 7 2.02 7 1 C4.69 1 2.38 1 0 1 C0 0.67 0 0.34 0 0 Z " fill="#737578" transform="translate(196,317)"/>
<path d="M0 0 C1.32 0 2.64 0 4 0 C4 1.32 4 2.64 4 4 C0.7 4 -2.6 4 -6 4 C-6 4.99 -6 5.98 -6 7 C-7.32 7 -8.64 7 -10 7 C-10 5.68 -10 4.36 -10 3 C-6.7 3 -3.4 3 0 3 C0 2.01 0 1.02 0 0 Z " fill="#B5B6B8" transform="translate(189,104)"/>
<path d="M0 0 C3.3 0 6.6 0 10 0 C10.33 0.99 10.66 1.98 11 3 C11.99 3.33 12.98 3.66 14 4 C10.37 4 6.74 4 3 4 C3 3.01 3 2.02 3 1 C2.01 0.67 1.02 0.34 0 0 Z " fill="#595B5E" transform="translate(179,324)"/>
<path d="M0 0 C2.31 0 4.62 0 7 0 C7 0.99 7 1.98 7 3 C6.01 3 5.02 3 4 3 C4 4.32 4 5.64 4 7 C2.68 7 1.36 7 0 7 C0 4.69 0 2.38 0 0 Z " fill="#898B8D" transform="translate(0,15)"/>
<path d="M0 0 C7.92 0 15.84 0 24 0 C24 1.32 24 2.64 24 4 C22.68 4 21.36 4 20 4 C20 3.01 20 2.02 20 1 C13.4 1 6.8 1 0 1 C0 0.67 0 0.34 0 0 Z " fill="#737578" transform="translate(90,451)"/>
<path d="M0 0 C1.32 0 2.64 0 4 0 C4 2.31 4 4.62 4 7 C4.99 7 5.98 7 7 7 C7 8.32 7 9.64 7 11 C5.68 11 4.36 11 3 11 C3 8.69 3 6.38 3 4 C2.01 4 1.02 4 0 4 C0 2.68 0 1.36 0 0 Z " fill="#5F6165" transform="translate(289,527)"/>
<path d="M0 0 C1.32 0 2.64 0 4 0 C4 3.3 4 6.6 4 10 C4.99 10 5.98 10 7 10 C7 11.32 7 12.64 7 14 C5.68 14 4.36 14 3 14 C3 10.37 3 6.74 3 3 C2.01 3 1.02 3 0 3 C0 2.01 0 1.02 0 0 Z " fill="#888A8C" transform="translate(114,510)"/>
<path d="M0 0 C1.32 0 2.64 0 4 0 C4 3.3 4 6.6 4 10 C4.99 10 5.98 10 7 10 C7 11.32 7 12.64 7 14 C6.01 14 5.02 14 4 14 C2.8422494 10.52674819 2.93133348 7.63932552 3 4 C2.01 4 1.02 4 0 4 C0 2.68 0 1.36 0 0 Z " fill="#C3C4C5" transform="translate(110,455)"/>
<path d="M0 0 C1.98 0 3.96 0 6 0 C6 0.99 6 1.98 6 3 C10.62 3 15.24 3 20 3 C20 3.33 20 3.66 20 4 C17.2291017 4.02696009 14.4584655 4.04681952 11.6875 4.0625 C10.50897461 4.07506836 10.50897461 4.07506836 9.30664062 4.08789062 C8.54931641 4.09111328 7.79199219 4.09433594 7.01171875 4.09765625 C5.96697388 4.10551147 5.96697388 4.10551147 4.90112305 4.11352539 C3 4 3 4 0 3 C0 2.01 0 1.02 0 0 Z " fill="#4E5054" transform="translate(276,338)"/>
<path d="M0 0 C1.32 0 2.64 0 4 0 C4 1.32 4 2.64 4 4 C1.69 4 -0.62 4 -3 4 C-3 4.99 -3 5.98 -3 7 C-4.32 7 -5.64 7 -7 7 C-7 5.68 -7 4.36 -7 3 C-4.69 3 -2.38 3 0 3 C0 2.01 0 1.02 0 0 Z " fill="#AAABAD" transform="translate(186,94)"/>
<path d="M0 0 C1.32 0 2.64 0 4 0 C4 1.32 4 2.64 4 4 C1.69 4 -0.62 4 -3 4 C-3 4.99 -3 5.98 -3 7 C-4.32 7 -5.64 7 -7 7 C-7 5.68 -7 4.36 -7 3 C-4.69 3 -2.38 3 0 3 C0 2.01 0 1.02 0 0 Z " fill="#7E8083" transform="translate(227,87)"/>
<path d="M0 0 C0.99 0 1.98 0 3 0 C3 1.32 3 2.64 3 4 C-0.3 4 -3.6 4 -7 4 C-7 4.99 -7 5.98 -7 7 C-8.32 7 -9.64 7 -11 7 C-11 5.68 -11 4.36 -11 3 C-7.37 3 -3.74 3 0 3 C0 2.01 0 1.02 0 0 Z " fill="#8C8D90" transform="translate(245,80)"/>
<path d="M0 0 C1.32 0 2.64 0 4 0 C4 1.32 4 2.64 4 4 C1.69 4 -0.62 4 -3 4 C-3 4.99 -3 5.98 -3 7 C-4.32 7 -5.64 7 -7 7 C-7 5.68 -7 4.36 -7 3 C-4.69 3 -2.38 3 0 3 C0 2.01 0 1.02 0 0 Z " fill="#9C9D9F" transform="translate(241,70)"/>
<path d="M0 0 C1.32 0 2.64 0 4 0 C4 1.32 4 2.64 4 4 C1.69 4 -0.62 4 -3 4 C-3 4.99 -3 5.98 -3 7 C-4.32 7 -5.64 7 -7 7 C-7 5.68 -7 4.36 -7 3 C-4.69 3 -2.38 3 0 3 C0 2.01 0 1.02 0 0 Z " fill="#A5A6A7" transform="translate(258,63)"/>
<path d="M0 0 C1.32 0 2.64 0 4 0 C4 5.94 4 11.88 4 18 C2.68 18 1.36 18 0 18 C0 16.68 0 15.36 0 14 C0.99 14 1.98 14 3 14 C3 9.71 3 5.42 3 1 C2.01 0.67 1.02 0.34 0 0 Z " fill="#1C1F24" transform="translate(234,451)"/>
<path d="M0 0 C0.33 0.99 0.66 1.98 1 3 C1.66 3 2.32 3 3 3 C3 6.3 3 9.6 3 13 C2.01 13 1.02 13 0 13 C0 8.71 0 4.42 0 0 Z " fill="#17191F" transform="translate(282,91)"/>
<path d="M0 0 C0 0.66 0 1.32 0 2 C-1.32 2 -2.64 2 -4 2 C-4 2.66 -4 3.32 -4 4 C-6.31 4.33 -8.62 4.66 -11 5 C-11 3.68 -11 2.36 -11 1 C-7.26513121 0.4254048 -3.78706732 0 0 0 Z " fill="#4E5154" transform="translate(32,0)"/>
<path d="M0 0 C2.31 0 4.62 0 7 0 C7 0.99 7 1.98 7 3 C9.31 3 11.62 3 14 3 C14 3.33 14 3.66 14 4 C12.22925083 4.02705729 10.45838289 4.04642195 8.6875 4.0625 C7.70136719 4.07410156 6.71523437 4.08570313 5.69921875 4.09765625 C3 4 3 4 0 3 C0 2.01 0 1.02 0 0 Z " fill="#57595D" transform="translate(217,135)"/>
<path d="M0 0 C1.58323688 -0.027193 3.16661062 -0.04648306 4.75 -0.0625 C6.07257813 -0.07990234 6.07257813 -0.07990234 7.421875 -0.09765625 C9.7818838 -0.00826198 11.74498524 0.33087179 14 1 C14 1.99 14 2.98 14 4 C11.69 4 9.38 4 7 4 C7 3.01 7 2.02 7 1 C4.69 1 2.38 1 0 1 C0 0.67 0 0.34 0 0 Z " fill="#2A2D32" transform="translate(217,331)"/>
<path d="M0 0 C2.31 0 4.62 0 7 0 C7 0.99 7 1.98 7 3 C7.99 3.33 8.98 3.66 10 4 C6.7 4 3.4 4 0 4 C0 2.68 0 1.36 0 0 Z " fill="#7E8083" transform="translate(248,324)"/>
<path d="M0 0 C3.3 0 6.6 0 10 0 C10 0.99 10 1.98 10 3 C6.7 3 3.4 3 0 3 C0 2.01 0 1.02 0 0 Z " fill="#535558" transform="translate(358,541)"/>
<path d="M0 0 C0.99 0 1.98 0 3 0 C3 1.32 3 2.64 3 4 C2.01 4 1.02 4 0 4 C0 9.61 0 15.22 0 21 C-0.33 21 -0.66 21 -1 21 C-1.0269501 18.06243881 -1.04681474 15.12512445 -1.0625 12.1875 C-1.07087891 11.35412109 -1.07925781 10.52074219 -1.08789062 9.66210938 C-1.09111328 8.85966797 -1.09433594 8.05722656 -1.09765625 7.23046875 C-1.10289307 6.49207764 -1.10812988 5.75368652 -1.11352539 4.99291992 C-1 3 -1 3 0 0 Z " fill="#C5C6C8" transform="translate(200,465)"/>
<path d="M0 0 C3.3 0 6.6 0 10 0 C10 0.99 10 1.98 10 3 C6.7 3 3.4 3 0 3 C0 2.01 0 1.02 0 0 Z " fill="#2A2C31" transform="translate(286,328)"/>
<path d="M0 0 C3.3 0 6.6 0 10 0 C10 0.99 10 1.98 10 3 C6.7 3 3.4 3 0 3 C0 2.01 0 1.02 0 0 Z " fill="#808184" transform="translate(207,328)"/>
<path d="M0 0 C6.625 -0.125 6.625 -0.125 10 1 C10 1.66 10 2.32 10 3 C12.64 3 15.28 3 18 3 C18 3.33 18 3.66 18 4 C16.22925083 4.02705729 14.45838289 4.04642195 12.6875 4.0625 C11.70136719 4.07410156 10.71523437 4.08570313 9.69921875 4.09765625 C7 4 7 4 4 3 C4 2.34 4 1.68 4 1 C2.68 0.67 1.36 0.34 0 0 Z " fill="#626468" transform="translate(234,128)"/>
<path d="M0 0 C3.3 0 6.6 0 10 0 C10 0.99 10 1.98 10 3 C6.7 3 3.4 3 0 3 C0 2.01 0 1.02 0 0 Z " fill="#6E7072" transform="translate(159,125)"/>
<path d="M0 0 C0.33 0.99 0.66 1.98 1 3 C1.66 3 2.32 3 3 3 C3 3.99 3 4.98 3 6 C7.62 6 12.24 6 17 6 C17 6.33 17 6.66 17 7 C11.39 7 5.78 7 0 7 C0 4.69 0 2.38 0 0 Z " fill="#C9CACB" transform="translate(296,534)"/>
<path d="M0 0 C0.33 0 0.66 0 1 0 C1 3.3 1 6.6 1 10 C0.01 10 -0.98 10 -2 10 C-2.33 11.32 -2.66 12.64 -3 14 C-3.125 7.375 -3.125 7.375 -2 4 C-1.34 4 -0.68 4 0 4 C0 2.68 0 1.36 0 0 Z " fill="#5A5C5F" transform="translate(144,503)"/>
<path d="M0 0 C2.64 0 5.28 0 8 0 C8 0.99 8 1.98 8 3 C8.99 3.33 9.98 3.66 11 4 C4.375 4.125 4.375 4.125 1 3 C0.67 2.01 0.34 1.02 0 0 Z " fill="#ACADAF" transform="translate(189,324)"/>
<path d="M0 0 C2.31 0 4.62 0 7 0 C7 1.32 7 2.64 7 4 C4.69 4 2.38 4 0 4 C0 2.68 0 1.36 0 0 Z " fill="#26292E" transform="translate(296,338)"/>
<path d="M0 0 C1.32 0 2.64 0 4 0 C4 1.32 4 2.64 4 4 C2.68 4 1.36 4 0 4 C0 4.99 0 5.98 0 7 C-0.99 7 -1.98 7 -3 7 C-3 5.68 -3 4.36 -3 3 C-2.01 3 -1.02 3 0 3 C0 2.01 0 1.02 0 0 Z " fill="#606265" transform="translate(306,331)"/>
<path d="M0 0 C0.99 0 1.98 0 3 0 C3 2.31 3 4.62 3 7 C2.01 7 1.02 7 0 7 C-0.33 8.32 -0.66 9.64 -1 11 C-1.14285714 3.57142857 -1.14285714 3.57142857 0 0 Z " fill="#34373B" transform="translate(314,317)"/>
<path d="M0 0 C0 2.31 0 4.62 0 7 C0.66 7 1.32 7 2 7 C2 8.32 2 9.64 2 11 C1.01 11 0.02 11 -1 11 C-1 8.69 -1 6.38 -1 4 C-1.99 4 -2.98 4 -4 4 C-4 3.01 -4 2.02 -4 1 C-1 0 -1 0 0 0 Z " fill="#959699" transform="translate(156,296)"/>
<path d="M0 0 C0.99 0 1.98 0 3 0 C3 0.99 3 1.98 3 3 C4.32 3 5.64 3 7 3 C7 4.32 7 5.64 7 7 C5.68 7 4.36 7 3 7 C3 6.01 3 5.02 3 4 C2.01 4 1.02 4 0 4 C0 2.68 0 1.36 0 0 Z " fill="#777A7C" transform="translate(296,149)"/>
<path d="M0 0 C2.31 0 4.62 0 7 0 C7 1.32 7 2.64 7 4 C4.69 4 2.38 4 0 4 C0 2.68 0 1.36 0 0 Z " fill="#35383C" transform="translate(296,138)"/>
<path d="M0 0 C0.99 0 1.98 0 3 0 C3 1.32 3 2.64 3 4 C0.69 4 -1.62 4 -4 4 C-4 4.99 -4 5.98 -4 7 C-4.99 7 -5.98 7 -7 7 C-7 5.68 -7 4.36 -7 3 C-4.69 3 -2.38 3 0 3 C0 2.01 0 1.02 0 0 Z " fill="#707174" transform="translate(217,80)"/>
<path d="M0 0 C0.33 0.99 0.66 1.98 1 3 C1.99 3 2.98 3 4 3 C4 5.31 4 7.62 4 10 C3.01 10 2.02 10 1 10 C-0.1577506 6.52674819 -0.06866652 3.63932552 0 0 Z " fill="#C4C5C6" transform="translate(282,77)"/>
<path d="M0 0 C1.32 0 2.64 0 4 0 C4 1.32 4 2.64 4 4 C2.68 4 1.36 4 0 4 C0 4.99 0 5.98 0 7 C-0.99 7 -1.98 7 -3 7 C-3 5.68 -3 4.36 -3 3 C-2.01 3 -1.02 3 0 3 C0 2.01 0 1.02 0 0 Z " fill="#33363A" transform="translate(14,8)"/>
<path d="M0 0 C2.31 0 4.62 0 7 0 C7 1.32 7 2.64 7 4 C4.69 4 2.38 4 0 4 C0 2.68 0 1.36 0 0 Z " fill="#A3A4A6" transform="translate(14,4)"/>
<path d="M0 0 C1.32 0 2.64 0 4 0 C4 1.98 4 3.96 4 6 C2.68 6.33 1.36 6.66 0 7 C0 4.69 0 2.38 0 0 Z " fill="#C4C5C6" transform="translate(131,493)"/>
<path d="M0 0 C0.99 0 1.98 0 3 0 C3.125 6.625 3.125 6.625 2 10 C1.34 10 0.68 10 0 10 C0 6.7 0 3.4 0 0 Z " fill="#D6D7D8" transform="translate(307,166)"/>
<path d="M0 0 C1.32 0 2.64 0 4 0 C4 1.32 4 2.64 4 4 C-0.62 4 -5.24 4 -10 4 C-10 3.67 -10 3.34 -10 3 C-6.7 3 -3.4 3 0 3 C0 2.01 0 1.02 0 0 Z " fill="#26292E" transform="translate(368,541)"/>
<path d="M0 0 C0.99 0 1.98 0 3 0 C3.33 2.31 3.66 4.62 4 7 C2.68 7 1.36 7 0 7 C0 4.69 0 2.38 0 0 Z " fill="#A6A7A9" transform="translate(272,462)"/>
<path d="M0 0 C4.29 0 8.58 0 13 0 C13 0.99 13 1.98 13 3 C13.99 3.33 14.98 3.66 16 4 C14.02 4 12.04 4 10 4 C10 3.01 10 2.02 10 1 C6.7 1 3.4 1 0 1 C0 0.67 0 0.34 0 0 Z " fill="#17191F" transform="translate(204,135)"/>
<path d="M0 0 C0.33 0.99 0.66 1.98 1 3 C2.98 3 4.96 3 7 3 C7 3.99 7 4.98 7 6 C4.69 6 2.38 6 0 6 C0 4.02 0 2.04 0 0 Z " fill="#D0D1D2" transform="translate(292,500)"/>
<path d="M0 0 C1.32 0 2.64 0 4 0 C4 1.98 4 3.96 4 6 C2.68 5.67 1.36 5.34 0 5 C0 3.35 0 1.7 0 0 Z " fill="#9D9FA1" transform="translate(268,455)"/>
<path d="M0 0 C0.33 1.32 0.66 2.64 1 4 C-3.62 4 -8.24 4 -13 4 C-13 3.01 -13 2.02 -13 1 C-12.01 1 -11.02 1 -10 1 C-10 1.66 -10 2.32 -10 3 C-6.7 3 -3.4 3 0 3 C0 2.01 0 1.02 0 0 Z " fill="#B6B7B9" transform="translate(285,135)"/>
<path d="M0 0 C1.32 0 2.64 0 4 0 C4 3.63 4 7.26 4 11 C3.67 11 3.34 11 3 11 C3 8.69 3 6.38 3 4 C2.01 4 1.02 4 0 4 C0 2.68 0 1.36 0 0 Z " fill="#78797D" transform="translate(289,73)"/>
<path d="M0 0 C0.33 0.99 0.66 1.98 1 3 C1.99 3 2.98 3 4 3 C4 3.99 4 4.98 4 6 C4.99 6.33 5.98 6.66 7 7 C4.69 7 2.38 7 0 7 C0 4.69 0 2.38 0 0 Z " fill="#CDCECF" transform="translate(124,534)"/>
<path d="M0 0 C0.33 0 0.66 0 1 0 C1 4.62 1 9.24 1 14 C0.01 14 -0.98 14 -2 14 C-2 12.68 -2 11.36 -2 10 C-1.34 10 -0.68 10 0 10 C0 6.7 0 3.4 0 0 Z " fill="#818385" transform="translate(395,513)"/>
<path d="M0 0 C0.33 0 0.66 0 1 0 C1 1.98 1 3.96 1 6 C1.99 6 2.98 6 4 6 C4 7.32 4 8.64 4 10 C2.68 10 1.36 10 0 10 C0 6.7 0 3.4 0 0 Z " fill="#4F5155" transform="translate(313,153)"/>
<path d="M0 0 C0.99 0 1.98 0 3 0 C3 2.31 3 4.62 3 7 C2.01 7 1.02 7 0 7 C0 4.69 0 2.38 0 0 Z " fill="#AAABAC" transform="translate(121,527)"/>
<path d="M0 0 C0.99 0 1.98 0 3 0 C3 2.31 3 4.62 3 7 C2.01 7 1.02 7 0 7 C0 4.69 0 2.38 0 0 Z " fill="#2B2D32" transform="translate(128,496)"/>
<path d="M0 0 C0.99 0 1.98 0 3 0 C3 2.31 3 4.62 3 7 C2.01 7 1.02 7 0 7 C0 4.69 0 2.38 0 0 Z " fill="#474A4D" transform="translate(276,465)"/>
<path d="M0 0 C0.99 0 1.98 0 3 0 C3 2.31 3 4.62 3 7 C2.01 7 1.02 7 0 7 C0 4.69 0 2.38 0 0 Z " fill="#33353A" transform="translate(138,465)"/>
<path d="M0 0 C0.33 0 0.66 0 1 0 C1 1.98 1 3.96 1 6 C0.01 6.33 -0.98 6.66 -2 7 C-2.33 7.99 -2.66 8.98 -3 10 C-3 7.69 -3 5.38 -3 3 C-2.01 3 -1.02 3 0 3 C0 2.01 0 1.02 0 0 Z " fill="#2B2E32" transform="translate(144,452)"/>
<path d="M0 0 C2.31 0 4.62 0 7 0 C7 0.99 7 1.98 7 3 C4.69 3 2.38 3 0 3 C0 2.01 0 1.02 0 0 Z " fill="#86878A" transform="translate(255,335)"/>
<path d="M0 0 C2.31 0 4.62 0 7 0 C7 0.99 7 1.98 7 3 C4.69 3 2.38 3 0 3 C0 2.01 0 1.02 0 0 Z " fill="#3D4044" transform="translate(248,335)"/>
<path d="M0 0 C2.31 0 4.62 0 7 0 C7 0.99 7 1.98 7 3 C4.69 3 2.38 3 0 3 C0 2.01 0 1.02 0 0 Z " fill="#A4A6A7" transform="translate(234,331)"/>
<path d="M0 0 C2.31 0 4.62 0 7 0 C7 0.99 7 1.98 7 3 C4.69 3 2.38 3 0 3 C0 2.01 0 1.02 0 0 Z " fill="#87898C" transform="translate(272,328)"/>
<path d="M0 0 C2.31 0 4.62 0 7 0 C7 0.99 7 1.98 7 3 C4.69 3 2.38 3 0 3 C0 2.01 0 1.02 0 0 Z " fill="#3D3F43" transform="translate(231,321)"/>
<path d="M0 0 C2.31 0 4.62 0 7 0 C7 0.99 7 1.98 7 3 C4.69 3 2.38 3 0 3 C0 2.01 0 1.02 0 0 Z " fill="#8B8C8E" transform="translate(224,321)"/>
<path d="M0 0 C2.31 0 4.62 0 7 0 C7 0.99 7 1.98 7 3 C4.69 3 2.38 3 0 3 C0 2.01 0 1.02 0 0 Z " fill="#CBCCCE" transform="translate(196,318)"/>
<path d="M0 0 C2.31 0 4.62 0 7 0 C7 0.99 7 1.98 7 3 C4.69 3 2.38 3 0 3 C0 2.01 0 1.02 0 0 Z " fill="#626367" transform="translate(183,314)"/>
<path d="M0 0 C0.99 0 1.98 0 3 0 C3 2.31 3 4.62 3 7 C2.01 7 1.02 7 0 7 C0 4.69 0 2.38 0 0 Z " fill="#404247" transform="translate(162,293)"/>
<path d="M0 0 C0.99 0 1.98 0 3 0 C3 2.31 3 4.62 3 7 C2.01 7 1.02 7 0 7 C0 4.69 0 2.38 0 0 Z " fill="#323539" transform="translate(159,283)"/>
<path d="M0 0 C2.31 0 4.62 0 7 0 C7 0.99 7 1.98 7 3 C4.69 3 2.38 3 0 3 C0 2.01 0 1.02 0 0 Z " fill="#747679" transform="translate(279,146)"/>
<path d="M0 0 C2.31 0 4.62 0 7 0 C7 0.99 7 1.98 7 3 C4.69 3 2.38 3 0 3 C0 2.01 0 1.02 0 0 Z " fill="#1F2227" transform="translate(272,146)"/>
<path d="M0 0 C2.31 0 4.62 0 7 0 C7 0.99 7 1.98 7 3 C4.69 3 2.38 3 0 3 C0 2.01 0 1.02 0 0 Z " fill="#C1C2C3" transform="translate(265,142)"/>
<path d="M0 0 C2.31 0 4.62 0 7 0 C7 0.99 7 1.98 7 3 C4.69 3 2.38 3 0 3 C0 2.01 0 1.02 0 0 Z " fill="#88898C" transform="translate(241,139)"/>
<path d="M0 0 C2.31 0 4.62 0 7 0 C7 0.99 7 1.98 7 3 C4.69 3 2.38 3 0 3 C0 2.01 0 1.02 0 0 Z " fill="#2D2F34" transform="translate(234,139)"/>
<path d="M0 0 C2.31 0 4.62 0 7 0 C7 0.99 7 1.98 7 3 C4.69 3 2.38 3 0 3 C0 2.01 0 1.02 0 0 Z " fill="#ACADAF" transform="translate(224,135)"/>
<path d="M0 0 C2.31 0 4.62 0 7 0 C7 0.99 7 1.98 7 3 C4.69 3 2.38 3 0 3 C0 2.01 0 1.02 0 0 Z " fill="#585A5D" transform="translate(258,132)"/>
<path d="M0 0 C2.31 0 4.62 0 7 0 C7 0.99 7 1.98 7 3 C4.69 3 2.38 3 0 3 C0 2.01 0 1.02 0 0 Z " fill="#B3B4B5" transform="translate(251,132)"/>
<path d="M0 0 C2.31 0 4.62 0 7 0 C7 0.99 7 1.98 7 3 C4.69 3 2.38 3 0 3 C0 2.01 0 1.02 0 0 Z " fill="#3B3D42" transform="translate(196,132)"/>
<path d="M0 0 C2.31 0 4.62 0 7 0 C7 0.99 7 1.98 7 3 C4.69 3 2.38 3 0 3 C0 2.01 0 1.02 0 0 Z " fill="#717275" transform="translate(217,125)"/>
<path d="M0 0 C2.31 0 4.62 0 7 0 C7 0.99 7 1.98 7 3 C4.69 3 2.38 3 0 3 C0 2.01 0 1.02 0 0 Z " fill="#D6D7D7" transform="translate(169,125)"/>
<path d="M0 0 C2.31 0 4.62 0 7 0 C7 0.99 7 1.98 7 3 C4.69 3 2.38 3 0 3 C0 2.01 0 1.02 0 0 Z " fill="#646568" transform="translate(179,118)"/>
<path d="M0 0 C2.31 0 4.62 0 7 0 C7 0.99 7 1.98 7 3 C4.69 3 2.38 3 0 3 C0 2.01 0 1.02 0 0 Z " fill="#BEBFC0" transform="translate(172,118)"/>
<path d="M0 0 C0.99 0 1.98 0 3 0 C3 2.31 3 4.62 3 7 C2.01 7 1.02 7 0 7 C0 4.69 0 2.38 0 0 Z " fill="#7A7B7E" transform="translate(293,108)"/>
<path d="M0 0 C1.98 0 3.96 0 6 0 C5.01 0.33 4.02 0.66 3 1 C3 1.99 3 2.98 3 4 C0.69 4 -1.62 4 -4 4 C-3.01 3.67 -2.02 3.34 -1 3 C-0.67 2.01 -0.34 1.02 0 0 Z " fill="#505256" transform="translate(207,97)"/>
<path d="M0 0 C0.99 0 1.98 0 3 0 C3 2.31 3 4.62 3 7 C2.01 7 1.02 7 0 7 C0 4.69 0 2.38 0 0 Z " fill="#686A6D" transform="translate(293,84)"/>
<path d="M0 0 C0.99 0 1.98 0 3 0 C3 2.31 3 4.62 3 7 C2.01 7 1.02 7 0 7 C0 4.69 0 2.38 0 0 Z " fill="#333539" transform="translate(279,77)"/>
<path d="M0 0 C0.33 1.32 0.66 2.64 1 4 C1.99 4 2.98 4 4 4 C4 6.31 4 8.62 4 11 C3.67 9.68 3.34 8.36 3 7 C2.01 7 1.02 7 0 7 C0 4.69 0 2.38 0 0 Z " fill="#54565A" transform="translate(289,489)"/>
<path d="M0 0 C0.33 0 0.66 0 1 0 C1 2.31 1 4.62 1 7 C0.01 7 -0.98 7 -2 7 C-2.33 8.32 -2.66 9.64 -3 11 C-3 8.69 -3 6.38 -3 4 C-2.01 4 -1.02 4 0 4 C0 2.68 0 1.36 0 0 Z " fill="#898B8D" transform="translate(316,310)"/>
<path d="M0 0 C0.99 0 1.98 0 3 0 C3 2.31 3 4.62 3 7 C2.01 6.67 1.02 6.34 0 6 C0 4.02 0 2.04 0 0 Z " fill="#3F4146" transform="translate(331,517)"/>
<path d="M0 0 C0.33 0.99 0.66 1.98 1 3 C1.99 3 2.98 3 4 3 C4 4.32 4 5.64 4 7 C2.68 7 1.36 7 0 7 C0 4.69 0 2.38 0 0 Z " fill="#949597" transform="translate(282,510)"/>
<path d="M0 0 C1.32 0 2.64 0 4 0 C4 2.31 4 4.62 4 7 C3.67 6.01 3.34 5.02 3 4 C2.01 4 1.02 4 0 4 C0 2.68 0 1.36 0 0 Z " fill="#202328" transform="translate(110,503)"/>
<path d="M0 0 C1.32 0 2.64 0 4 0 C4 2.31 4 4.62 4 7 C3.67 6.01 3.34 5.02 3 4 C2.01 4 1.02 4 0 4 C0 2.68 0 1.36 0 0 Z " fill="#5E6064" transform="translate(272,496)"/>
<path d="M0 0 C0.33 0.99 0.66 1.98 1 3 C1.99 3 2.98 3 4 3 C4 4.32 4 5.64 4 7 C2.68 7 1.36 7 0 7 C0 4.69 0 2.38 0 0 Z " fill="#424448" transform="translate(124,489)"/>
<path d="M0 0 C1.32 0 2.64 0 4 0 C4 2.31 4 4.62 4 7 C3.67 6.01 3.34 5.02 3 4 C2.01 4 1.02 4 0 4 C0 2.68 0 1.36 0 0 Z " fill="#737578" transform="translate(279,475)"/>
<path d="M0 0 C1.32 0 2.64 0 4 0 C4 3.3 4 6.6 4 10 C3.67 10 3.34 10 3 10 C3 7.69 3 5.38 3 3 C2.01 3 1.02 3 0 3 C0 2.01 0 1.02 0 0 Z " fill="#4E5054" transform="translate(114,462)"/>
<path d="M0 0 C1.32 0 2.64 0 4 0 C4 0.99 4 1.98 4 3 C4.99 3.33 5.98 3.66 7 4 C4.69 4 2.38 4 0 4 C0 2.68 0 1.36 0 0 Z " fill="#23252B" transform="translate(272,338)"/>
<path d="M0 0 C0.33 0.99 0.66 1.98 1 3 C2.98 3 4.96 3 7 3 C7 4.32 7 5.64 7 7 C6.01 7 5.02 7 4 7 C4 6.01 4 5.02 4 4 C2.68 4 1.36 4 0 4 C0 2.68 0 1.36 0 0 Z " fill="#97999B" transform="translate(165,314)"/>
<path d="M0 0 C2.31 0 4.62 0 7 0 C7 1.32 7 2.64 7 4 C5.68 4 4.36 4 3 4 C3 3.01 3 2.02 3 1 C2.01 0.67 1.02 0.34 0 0 Z " fill="#3E4044" transform="translate(200,121)"/>
<path d="M0 0 C1.32 0 2.64 0 4 0 C4 1.32 4 2.64 4 4 C1.69 4 -0.62 4 -3 4 C-2.01 3.67 -1.02 3.34 0 3 C0 2.01 0 1.02 0 0 Z " fill="#818385" transform="translate(172,111)"/>
<path d="M0 0 C2.31 0 4.62 0 7 0 C6.01 0.33 5.02 0.66 4 1 C4 1.99 4 2.98 4 4 C2.68 4 1.36 4 0 4 C0 2.68 0 1.36 0 0 Z " fill="#9C9D9F" transform="translate(162,104)"/>
<path d="M0 0 C1.32 0 2.64 0 4 0 C4 1.32 4 2.64 4 4 C1.69 4 -0.62 4 -3 4 C-2.01 3.67 -1.02 3.34 0 3 C0 2.01 0 1.02 0 0 Z " fill="#6E7073" transform="translate(189,104)"/>
<path d="M0 0 C1.32 0 2.64 0 4 0 C4 1.32 4 2.64 4 4 C1.69 4 -0.62 4 -3 4 C-2.01 3.67 -1.02 3.34 0 3 C0 2.01 0 1.02 0 0 Z " fill="#D8D9DA" transform="translate(172,101)"/>
<path d="M0 0 C3.3 0 6.6 0 10 0 C10 0.33 10 0.66 10 1 C7.69 1 5.38 1 3 1 C3 1.99 3 2.98 3 4 C2.01 4 1.02 4 0 4 C0 2.68 0 1.36 0 0 Z " fill="#636569" transform="translate(193,90)"/>
<path d="M0 0 C0.99 0 1.98 0 3 0 C3 1.98 3 3.96 3 6 C2.01 6 1.02 6 0 6 C0 4.02 0 2.04 0 0 Z " fill="#5B5D61" transform="translate(138,517)"/>
<path d="M0 0 C0.33 0 0.66 0 1 0 C1 1.98 1 3.96 1 6 C-0.32 6.33 -1.64 6.66 -3 7 C-3 5.68 -3 4.36 -3 3 C-2.01 3 -1.02 3 0 3 C0 2.01 0 1.02 0 0 Z " fill="#B2B2B4" transform="translate(141,469)"/>
<path d="M0 0 C1.98 0 3.96 0 6 0 C6 0.99 6 1.98 6 3 C4.02 3 2.04 3 0 3 C0 2.01 0 1.02 0 0 Z " fill="#1A1C21" transform="translate(190,314)"/>
<path d="M0 0 C1.32 0 2.64 0 4 0 C4 1.32 4 2.64 4 4 C2.68 4.33 1.36 4.66 0 5 C0 3.35 0 1.7 0 0 Z " fill="#B2B3B4" transform="translate(158,290)"/>
<path d="M0 0 C0.99 0 1.98 0 3 0 C3 1.32 3 2.64 3 4 C2.34 4 1.68 4 1 4 C1 5.98 1 7.96 1 10 C0.67 10 0.34 10 0 10 C0 6.7 0 3.4 0 0 Z " fill="#33353A" transform="translate(282,104)"/>
<path d="M0 0 C0.33 0 0.66 0 1 0 C1 3.63 1 7.26 1 11 C0.01 11 -0.98 11 -2 11 C-2 10.01 -2 9.02 -2 8 C-1.34 8 -0.68 8 0 8 C0 5.36 0 2.72 0 0 Z " fill="#14171D" transform="translate(137,468)"/>
<path d="M0 0 C0.99 0 1.98 0 3 0 C3.33 2.31 3.66 4.62 4 7 C3.67 6.01 3.34 5.02 3 4 C2.01 4 1.02 4 0 4 C0 2.68 0 1.36 0 0 Z " fill="#191B21" transform="translate(272,458)"/>
<path d="M0 0 C0.33 0.99 0.66 1.98 1 3 C1.99 3 2.98 3 4 3 C4 4.32 4 5.64 4 7 C3.01 7 2.02 7 1 7 C0.67 4.69 0.34 2.38 0 0 Z " fill="#303337" transform="translate(158,307)"/>
</svg>
